<svg xmlns="http://www.w3.org/2000/svg" xmlns:xlink="http://www.w3.org/1999/xlink" width="2368" height="512" viewBox="0 0 626.53 135.47"><defs><linearGradient id="a"><stop offset="0" style="stop-color:#b6273e;stop-opacity:1"/><stop offset="1" style="stop-color:#c16c29;stop-opacity:1"/></linearGradient><linearGradient xlink:href="#a" id="c" x1="220.904" x2="571.256" y1="132.956" y2="652.374" gradientTransform="translate(-82.815 -324.93)" gradientUnits="userSpaceOnUse"/><linearGradient xlink:href="#a" id="b" x1="220.904" x2="571.256" y1="132.956" y2="652.374" gradientTransform="translate(7.172 -9.195)" gradientUnits="userSpaceOnUse"/><clipPath id="f" clipPathUnits="userSpaceOnUse"><path d="M115.387 315.735a25.345 25.345 0 0 0-25.4 25.4v84.67a25.345 25.345 0 0 0 25.4 25.4h575.73a25.345 25.345 0 0 0 25.4-25.4v-84.67a25.345 25.345 0 0 0-25.4-25.4z" style="fill:url(#b);fill-opacity:1;stroke-width:.999999;paint-order:stroke fill markers"/></clipPath><filter id="d" width="1.102" height="1.474" x="-.051" y="-.237" style="color-interpolation-filters:sRGB"><feGaussianBlur result="blur" stdDeviation="13.371"/></filter></defs><path d="M25.4 0A25.345 25.345 0 0 0 0 25.4v84.67a25.345 25.345 0 0 0 25.4 25.4h575.73a25.345 25.345 0 0 0 25.4-25.4V25.4A25.345 25.345 0 0 0 601.13 0Z" style="fill:url(#c);fill-opacity:1;paint-order:stroke fill markers"/><g stroke="none" clip-path="url(#f)" style="fill:none;stroke:#fff;stroke-width:3.96885;stroke-dasharray:none;stroke-opacity:1;filter:url(#d)" transform="translate(-89.987 -315.735)"><path d="m693.149 315.814-580.689.086c-4.974 1.673-8.066.25-11.92 4.598l590.845 3.77c12.996-.058 25.142 13.365 25.142 26.371l-.01-9.504c0-6.882-2.335-20.204-23.368-25.321" style="baseline-shift:baseline;display:inline;overflow:visible;opacity:1;vector-effect:none;fill:#fff;stroke:none;paint-order:stroke fill markers;enable-background:accumulate;stop-color:#000;stop-opacity:1"/><path d="M90.407 430.448c2.3 12.746 11.827 20.837 26.976 20.757h573.734q12.473-1.302 16.715-6.245s-574.61-.004-590.392-.387-27.033-14.125-27.453-35.041z" style="baseline-shift:baseline;display:inline;overflow:visible;opacity:1;vector-effect:none;fill:#000;stroke:none;paint-order:stroke fill markers;enable-background:accumulate;stop-color:#000;stop-opacity:1"/></g><path d="M572.395 339.87c-4.108 0-4.108 6.162-4.108 14.377 0 5.384-1.027 11.296 1.027 15.403 1.266 2.533 3.39 3.818 5.16 4.47 1.62.596 2.226-.484 1.503-2.056-.766-1.667-1.528-3.967-1.528-6.521 0-3.205 1.026-9.243 3.08-9.243 1.47 0 4.108 1.028 6.162 3.081s3.08 4.108 3.08 7.189c0 1.72-.677 3.397-1.482 4.784-1.198 2.063-.601 3.404 1.553 2.398 2.842-1.326 6.09-4.36 6.09-11.29 0-10.269-16.429-22.591-20.537-22.592m78.19 0c-4.108 0-4.107 6.161-4.107 14.377 0 5.384-1.027 11.296 1.026 15.403 1.267 2.533 3.39 3.818 5.16 4.47 1.621.596 2.226-.484 1.503-2.056-.766-1.667-1.528-3.967-1.528-6.521 0-3.205 1.027-9.243 3.08-9.243 1.47 0 4.108 1.028 6.162 3.081s3.08 4.108 3.08 7.189c0 1.72-.677 3.397-1.482 4.784-1.198 2.063-.6 3.404 1.553 2.398 2.843-1.326 6.091-4.36 6.091-11.29 0-10.27-16.43-22.592-20.538-22.592m-127.87 34.24q-3.318 0-5.392 2.282t-3.215 6.015q-1.037 3.735-1.452 8.09a90 90 0 0 0-.415 8.504q0 4.148.415 8.608.519 4.46 1.66 8.296 1.14 3.838 3.214 6.223 2.178 2.385 5.393 2.385 4.356 0 6.015-2.282 1.66-2.385 1.867-5.911.311-3.525.311-7.156 0-5.497 1.66-8.815 1.659-3.423 5.185-3.423 3.941 0 5.497 3.423 1.556 3.318 1.556 8.815 0 3.63.31 7.26.312 3.526 1.971 5.911 1.764 2.282 5.912 2.282 3.836 0 5.91-2.282 2.178-2.385 3.008-6.222.933-3.941.933-8.712.105-9.333-2.281-16.386-2.282-7.155-7.364-11.2t-13.066-4.045q-3.526 0-6.327 1.244-2.696 1.14-3.94 2.49-1.453-5.394-7.364-5.393m85.254.726q-3.94 0-6.118 2.075-2.075 1.97-3.008 5.185-.83 3.215-1.037 7.052a265 265 0 0 0-.103 7.363q0 5.394.414 10.475.416 5.082 1.556 9.023t3.319 6.326q2.281 2.282 5.807 2.282 3.734 0 5.705-1.763 1.97-1.868 2.696-4.77.83-2.905.933-6.016.208-3.215.208-5.912 0-5.185 3.11-8.193 3.216-3.111 7.053-3.111 1.452 0 2.489.415t2.178.933q1.14.415 2.904.415 4.044 0 6.222-2.696 2.282-2.697 2.282-5.704 0-3.526-2.385-6.326-2.385-2.801-5.808-4.356-3.423-1.66-6.741-1.66a28.5 28.5 0 0 0-7.675 1.038q-3.63.933-6.015 3.11-.622-2.592-2.904-3.837-2.28-1.348-5.082-1.348m-27.585 4.98q-4.148 0-6.222 2.384-2.075 2.281-2.8 7.26-.623 4.977-.623 12.756.105 7.778.726 12.756.726 4.875 2.697 7.26 2.074 2.385 6.222 2.385t6.223-2.386 2.8-7.26q.726-4.977.622-12.755 0-7.778-.726-12.756t-2.8-7.26q-1.97-2.385-6.119-2.385m78.403 0q-4.149 0-6.223 2.384-2.074 2.281-2.8 7.26-.622 4.977-.622 12.756.103 7.778.726 12.756.726 4.875 2.696 7.26 2.074 2.385 6.223 2.385 4.148 0 6.222-2.386 2.075-2.385 2.8-7.26.727-4.977.623-12.755 0-7.778-.726-12.756t-2.8-7.26q-1.971-2.385-6.12-2.385" style="fill:#fff;fill-opacity:1;stroke-width:2.11669;stroke-linecap:square;paint-order:stroke fill markers" transform="translate(-82.815 -320.05)"/><path d="M482.174 354.92q-1.92 0-3.402 1.134a5.13 5.13 0 0 0-2.007 2.792l-20.239 69.44q-.435 1.57 0 3.315a5.76 5.76 0 0 0 1.92 2.879q1.395 1.221 3.489 1.221 1.92 0 3.402-1.134 1.484-1.134 2.007-2.791l5.605-19.232 14.634-50.208a5.38 5.38 0 0 0 0-3.315 5.76 5.76 0 0 0-1.92-2.88q-1.308-1.22-3.489-1.22m-73.192 1.746q-2.966 0-4.885 1.92-1.92 1.918-1.92 5.408t1.92 5.408q1.92 1.92 4.885 1.92 3.14 0 5.06-1.92t1.919-5.408-1.92-5.409-5.06-1.92m18.058 0q-2.966 0-4.885 1.92-1.92 1.918-1.92 5.408t1.92 5.408q1.92 1.92 4.885 1.92 3.14 0 5.06-1.92t1.919-5.408-1.92-5.409-5.059-1.92m-145.907.872q-2.705 0-4.623 1.919-1.92 1.919-1.92 4.624v51.468q0 2.705 1.92 4.624 1.92 1.92 4.623 1.92 2.705 0 4.623-1.92 1.92-1.919 1.92-4.624v-8.236l5.053-4.117 11.086 16.105a6.9 6.9 0 0 0 2.268 2.006q1.484.786 3.053.785 2.704 0 4.623-1.919t1.919-4.624q0-2.093-1.221-3.75l-11.716-16.757 10.06-8.193q2.354-1.92 2.354-5.06 0-2.704-1.918-4.536-1.92-1.92-4.624-1.92-2.53 0-4.275 1.483l-16.662 13.573V364.08q0-2.705-1.92-4.624-1.92-1.92-4.623-1.919m58.622 17.272q-4.972 0-8.898 1.832-3.838 1.832-6.106 5.06-2.181 3.14-2.181 7.24 0 3.403 1.134 5.758a12.3 12.3 0 0 0 3.315 4.013q2.094 1.658 4.798 2.879a112 112 0 0 0 5.845 2.181q2.617.873 4.362 1.745 1.744.785 2.617 1.657.872.873.872 1.92 0 1.133-.96 2.006-.872.785-3.14.785-1.92 0-4.013-.785-2.094-.873-4.624-3.054-.61-.61-2.006-1.395-1.395-.873-3.576-.873-3.142 0-4.711 1.92-1.57 1.918-1.57 3.925 0 2.442 2.355 5.06 2.442 2.617 6.804 4.361 4.362 1.745 10.207 1.745 5.583 0 9.683-1.745 4.187-1.831 6.455-5.147 2.268-3.402 2.269-7.938 0-2.53-.785-4.449-.699-2.007-2.269-3.577-1.482-1.657-3.838-2.966-2.268-1.395-5.409-2.53-3.925-1.482-6.28-2.355-2.356-.872-3.403-1.658-1.047-.872-1.047-2.18 0-.96.698-1.745.785-.786 2.879-.785 1.483 0 2.443.436 1.047.436 1.744 1.047.786.61 1.396 1.221.873.786 2.356 1.832 1.482.96 3.75.96 2.705 0 3.926-1.57 1.31-1.572 1.309-3.752 0-2.965-2.18-5.409-2.095-2.53-5.846-4.1-3.664-1.57-8.375-1.57m-79.907.175q-2.53 0-4.711 1.57-2.094 1.484-3.664 3.751-.295.434-.57.867-.229-2.145-1.61-3.746-1.571-2.006-4.625-2.006-2.878 0-4.885 1.919-1.92 1.919-1.919 4.624v33.585q0 2.705 1.92 4.624 1.918 1.92 4.623 1.92v-.001q2.704 0 4.624-1.92t1.919-4.623v-18.232q0-2.966.785-4.972.785-2.094 2.617-3.14 1.92-1.135 5.147-1.135t5.234-1.919q2.006-1.919 2.006-4.624 0-3.053-1.919-4.797-1.92-1.745-4.972-1.745m-54.087 0q-6.717 0-11.864 3.228-5.06 3.14-7.851 8.462-2.792 5.32-2.792 11.95 0 6.718 2.792 12.214 2.79 5.407 7.851 8.55 5.147 3.14 11.864 3.14 6.804 0 11.864-3.14 5.06-3.143 7.851-8.55 2.792-5.496 2.792-12.213 0-6.63-2.792-11.951-2.79-5.322-7.851-8.462-5.06-3.228-11.864-3.228m-84.532.436q-3.14 0-4.798 2.18-1.57 2.094-1.57 4.537 0 1.221.349 2.181l12.475 33.237q.872 2.268 2.704 3.402t3.751 1.134q2.007 0 3.751-1.134 1.832-1.221 2.53-3.402l6.456-19.207 6.455 19.207q.698 2.181 2.53 3.402 1.832 1.134 3.751 1.134 2.007 0 3.75-1.134 1.833-1.134 2.705-3.402l12.475-33.237q.35-.96.35-2.181 0-2.443-1.658-4.537-1.571-2.18-4.711-2.18-2.18 0-3.838 1.22-1.657 1.136-2.356 2.967l-6.766 19.102-6.32-17.88q-.784-2.27-2.617-3.403-1.744-1.134-3.75-1.134-1.92 0-3.752 1.134t-2.617 3.402l-6.319 17.88-6.766-19.1q-.612-1.833-2.356-2.967-1.657-1.221-3.838-1.221m271.265 0q-3.14 0-4.798 2.181-1.57 2.094-1.57 4.536 0 1.221.349 2.181l12.475 33.237q.872 2.268 2.704 3.402t3.751 1.134q2.007 0 3.752-1.134 1.83-1.221 2.53-3.402l6.455-19.206 6.455 19.206q.699 2.181 2.53 3.402 1.832 1.134 3.751 1.134 2.007 0 3.752-1.134 1.83-1.134 2.704-3.402l12.475-33.237q.349-.96.349-2.18 0-2.444-1.658-4.537-1.57-2.18-4.71-2.18-2.182 0-3.84 1.22-1.657 1.134-2.355 2.966l-6.766 19.102-6.319-17.88q-.785-2.27-2.617-3.403-1.745-1.134-3.751-1.134-1.92 0-3.752 1.134-1.83 1.134-2.617 3.402l-6.318 17.881-6.767-19.102q-.61-1.832-2.355-2.966-1.658-1.22-3.839-1.22M205.76 386.937q4.275 0 6.63 2.965 2.355 2.967 2.356 8.724 0 6.02-2.356 8.985-2.355 2.967-6.63 2.967t-6.63-2.967-2.355-8.985q0-5.757 2.355-8.724 2.355-2.965 6.63-2.965" style="font-variation-settings:&quot;wght&quot;800;fill:#fff;fill-opacity:1;paint-order:stroke fill markers" transform="translate(-82.815 -320.05)"/></svg>